<mxfile host="Electron" agent="Mozilla/5.0 (Windows NT 10.0; Win64; x64) AppleWebKit/537.36 (KHTML, like Gecko) draw.io/26.0.4 Chrome/128.0.6613.186 Electron/32.2.5 Safari/537.36" version="26.0.4">
  <diagram name="Page-1" id="3YW9pBftN6-iqX6uHg8v">
    <mxGraphModel dx="880" dy="532" grid="1" gridSize="10" guides="1" tooltips="1" connect="1" arrows="1" fold="1" page="1" pageScale="1" pageWidth="1169" pageHeight="827" math="0" shadow="0">
      <root>
        <mxCell id="0" />
        <mxCell id="1" parent="0" />
        <mxCell id="YRFdh3WtyHf0gqD4VgI7-1" value="Start" style="ellipse;whiteSpace=wrap;html=1;fillColor=#f5f5f5;fontColor=#333333;strokeColor=#666666;" parent="1" vertex="1">
          <mxGeometry x="46" y="321" width="70" height="34" as="geometry" />
        </mxCell>
        <mxCell id="YRFdh3WtyHf0gqD4VgI7-3" value="" style="endArrow=classic;html=1;rounded=0;exitX=1;exitY=0.5;exitDx=0;exitDy=0;entryX=0;entryY=0.5;entryDx=0;entryDy=0;" parent="1" source="YRFdh3WtyHf0gqD4VgI7-1" target="YRFdh3WtyHf0gqD4VgI7-9" edge="1">
          <mxGeometry width="50" height="50" relative="1" as="geometry">
            <mxPoint x="406" y="414" as="sourcePoint" />
            <mxPoint x="186" y="338" as="targetPoint" />
          </mxGeometry>
        </mxCell>
        <mxCell id="YRFdh3WtyHf0gqD4VgI7-9" value="Connect Wallet" style="rounded=1;whiteSpace=wrap;html=1;fillColor=#d5e8d4;strokeColor=#82b366;" parent="1" vertex="1">
          <mxGeometry x="182" y="318" width="120" height="40" as="geometry" />
        </mxCell>
        <mxCell id="YRFdh3WtyHf0gqD4VgI7-10" value="" style="endArrow=classic;html=1;rounded=0;entryX=0;entryY=0.5;entryDx=0;entryDy=0;" parent="1" target="YRFdh3WtyHf0gqD4VgI7-12" edge="1">
          <mxGeometry relative="1" as="geometry">
            <mxPoint x="302" y="340" as="sourcePoint" />
            <mxPoint x="532" y="337" as="targetPoint" />
          </mxGeometry>
        </mxCell>
        <mxCell id="YRFdh3WtyHf0gqD4VgI7-12" value="Homescreen" style="rounded=1;whiteSpace=wrap;html=1;fillColor=#d5e8d4;strokeColor=#82b366;" parent="1" vertex="1">
          <mxGeometry x="362" y="321" width="120" height="40" as="geometry" />
        </mxCell>
        <mxCell id="YRFdh3WtyHf0gqD4VgI7-13" value="User Profile" style="rounded=1;whiteSpace=wrap;html=1;fillColor=#ffe6cc;strokeColor=#d79b00;" parent="1" vertex="1">
          <mxGeometry x="547" y="236" width="120" height="40" as="geometry" />
        </mxCell>
        <mxCell id="YRFdh3WtyHf0gqD4VgI7-14" value="Dashboard" style="rounded=1;whiteSpace=wrap;html=1;fillColor=#ffe6cc;strokeColor=#d79b00;" parent="1" vertex="1">
          <mxGeometry x="547" y="321" width="120" height="40" as="geometry" />
        </mxCell>
        <mxCell id="YRFdh3WtyHf0gqD4VgI7-15" value="Add to vault" style="rounded=1;whiteSpace=wrap;html=1;fillColor=#ffe6cc;strokeColor=#d79b00;" parent="1" vertex="1">
          <mxGeometry x="702" y="270" width="120" height="40" as="geometry" />
        </mxCell>
        <mxCell id="YRFdh3WtyHf0gqD4VgI7-16" value="Readjust" style="rounded=1;whiteSpace=wrap;html=1;fillColor=#ffe6cc;strokeColor=#d79b00;" parent="1" vertex="1">
          <mxGeometry x="702" y="321" width="120" height="40" as="geometry" />
        </mxCell>
        <mxCell id="YRFdh3WtyHf0gqD4VgI7-17" value="Remove from vault" style="rounded=1;whiteSpace=wrap;html=1;fillColor=#ffe6cc;strokeColor=#d79b00;" parent="1" vertex="1">
          <mxGeometry x="702" y="374" width="120" height="40" as="geometry" />
        </mxCell>
        <mxCell id="YRFdh3WtyHf0gqD4VgI7-19" value="Others" style="rounded=1;whiteSpace=wrap;html=1;fillColor=#ffe6cc;strokeColor=#d79b00;" parent="1" vertex="1">
          <mxGeometry x="547" y="400" width="120" height="40" as="geometry" />
        </mxCell>
        <mxCell id="YRFdh3WtyHf0gqD4VgI7-21" value="" style="endArrow=classic;html=1;rounded=0;exitX=1;exitY=0.5;exitDx=0;exitDy=0;entryX=0;entryY=0.5;entryDx=0;entryDy=0;edgeStyle=orthogonalEdgeStyle;curved=1;" parent="1" source="YRFdh3WtyHf0gqD4VgI7-12" target="YRFdh3WtyHf0gqD4VgI7-13" edge="1">
          <mxGeometry width="50" height="50" relative="1" as="geometry">
            <mxPoint x="552" y="204" as="sourcePoint" />
            <mxPoint x="602" y="154" as="targetPoint" />
          </mxGeometry>
        </mxCell>
        <mxCell id="YRFdh3WtyHf0gqD4VgI7-22" value="" style="endArrow=classic;html=1;rounded=0;entryX=0;entryY=0.5;entryDx=0;entryDy=0;exitX=1;exitY=0.5;exitDx=0;exitDy=0;edgeStyle=orthogonalEdgeStyle;curved=1;" parent="1" source="YRFdh3WtyHf0gqD4VgI7-12" target="YRFdh3WtyHf0gqD4VgI7-14" edge="1">
          <mxGeometry width="50" height="50" relative="1" as="geometry">
            <mxPoint x="552" y="294" as="sourcePoint" />
            <mxPoint x="602" y="244" as="targetPoint" />
          </mxGeometry>
        </mxCell>
        <mxCell id="YRFdh3WtyHf0gqD4VgI7-23" value="" style="endArrow=classic;html=1;rounded=0;entryX=0;entryY=0.5;entryDx=0;entryDy=0;exitX=1;exitY=0.5;exitDx=0;exitDy=0;edgeStyle=orthogonalEdgeStyle;curved=1;" parent="1" source="YRFdh3WtyHf0gqD4VgI7-14" target="YRFdh3WtyHf0gqD4VgI7-15" edge="1">
          <mxGeometry width="50" height="50" relative="1" as="geometry">
            <mxPoint x="562" y="284" as="sourcePoint" />
            <mxPoint x="612" y="234" as="targetPoint" />
          </mxGeometry>
        </mxCell>
        <mxCell id="YRFdh3WtyHf0gqD4VgI7-24" value="" style="endArrow=classic;html=1;rounded=0;entryX=0;entryY=0.5;entryDx=0;entryDy=0;edgeStyle=orthogonalEdgeStyle;curved=1;" parent="1" target="YRFdh3WtyHf0gqD4VgI7-16" edge="1">
          <mxGeometry width="50" height="50" relative="1" as="geometry">
            <mxPoint x="667" y="341" as="sourcePoint" />
            <mxPoint x="582" y="264" as="targetPoint" />
          </mxGeometry>
        </mxCell>
        <mxCell id="YRFdh3WtyHf0gqD4VgI7-25" value="" style="endArrow=classic;html=1;rounded=0;entryX=0;entryY=0.5;entryDx=0;entryDy=0;exitX=1;exitY=0.5;exitDx=0;exitDy=0;edgeStyle=orthogonalEdgeStyle;curved=1;" parent="1" source="YRFdh3WtyHf0gqD4VgI7-12" target="YRFdh3WtyHf0gqD4VgI7-19" edge="1">
          <mxGeometry width="50" height="50" relative="1" as="geometry">
            <mxPoint x="352" y="244" as="sourcePoint" />
            <mxPoint x="402" y="194" as="targetPoint" />
          </mxGeometry>
        </mxCell>
        <mxCell id="YRFdh3WtyHf0gqD4VgI7-27" value="" style="endArrow=classic;html=1;rounded=0;entryX=0;entryY=0.5;entryDx=0;entryDy=0;exitX=1;exitY=0.5;exitDx=0;exitDy=0;edgeStyle=orthogonalEdgeStyle;curved=1;" parent="1" source="YRFdh3WtyHf0gqD4VgI7-14" target="YRFdh3WtyHf0gqD4VgI7-17" edge="1">
          <mxGeometry width="50" height="50" relative="1" as="geometry">
            <mxPoint x="552" y="374" as="sourcePoint" />
            <mxPoint x="652" y="404" as="targetPoint" />
          </mxGeometry>
        </mxCell>
        <mxCell id="YRFdh3WtyHf0gqD4VgI7-28" value="Is 3 months over&lt;span style=&quot;background-color: initial;&quot;&gt;?&lt;/span&gt;" style="rhombus;whiteSpace=wrap;html=1;fillColor=#f8cecc;strokeColor=#b85450;" parent="1" vertex="1">
          <mxGeometry x="882" y="216" width="80" height="80" as="geometry" />
        </mxCell>
        <mxCell id="YRFdh3WtyHf0gqD4VgI7-29" value="" style="endArrow=classic;html=1;rounded=0;exitX=1;exitY=0.5;exitDx=0;exitDy=0;entryX=0;entryY=0.5;entryDx=0;entryDy=0;edgeStyle=orthogonalEdgeStyle;curved=1;" parent="1" source="YRFdh3WtyHf0gqD4VgI7-16" target="YRFdh3WtyHf0gqD4VgI7-28" edge="1">
          <mxGeometry width="50" height="50" relative="1" as="geometry">
            <mxPoint x="842" y="322" as="sourcePoint" />
            <mxPoint x="892" y="272" as="targetPoint" />
          </mxGeometry>
        </mxCell>
        <mxCell id="YRFdh3WtyHf0gqD4VgI7-30" value="Proceed" style="rounded=1;whiteSpace=wrap;html=1;fillColor=#fff2cc;strokeColor=#d6b656;" parent="1" vertex="1">
          <mxGeometry x="982" y="173" width="120" height="40" as="geometry" />
        </mxCell>
        <mxCell id="YRFdh3WtyHf0gqD4VgI7-31" value="Warning Cannot Readjust" style="rounded=1;whiteSpace=wrap;html=1;fillColor=#fff2cc;strokeColor=#d6b656;" parent="1" vertex="1">
          <mxGeometry x="982" y="296" width="120" height="40" as="geometry" />
        </mxCell>
        <mxCell id="YRFdh3WtyHf0gqD4VgI7-32" value="" style="endArrow=classic;html=1;rounded=0;exitX=0.5;exitY=0;exitDx=0;exitDy=0;entryX=0;entryY=0.5;entryDx=0;entryDy=0;" parent="1" source="YRFdh3WtyHf0gqD4VgI7-28" target="YRFdh3WtyHf0gqD4VgI7-30" edge="1">
          <mxGeometry relative="1" as="geometry">
            <mxPoint x="872" y="122" as="sourcePoint" />
            <mxPoint x="962" y="122" as="targetPoint" />
            <Array as="points">
              <mxPoint x="922" y="192" />
            </Array>
          </mxGeometry>
        </mxCell>
        <mxCell id="YRFdh3WtyHf0gqD4VgI7-33" value="Yes" style="edgeLabel;resizable=0;html=1;;align=center;verticalAlign=middle;" parent="YRFdh3WtyHf0gqD4VgI7-32" connectable="0" vertex="1">
          <mxGeometry relative="1" as="geometry">
            <mxPoint x="-18" y="1" as="offset" />
          </mxGeometry>
        </mxCell>
        <mxCell id="YRFdh3WtyHf0gqD4VgI7-34" value="" style="endArrow=classic;html=1;rounded=0;exitX=0.5;exitY=1;exitDx=0;exitDy=0;entryX=0;entryY=0.5;entryDx=0;entryDy=0;" parent="1" source="YRFdh3WtyHf0gqD4VgI7-28" edge="1">
          <mxGeometry relative="1" as="geometry">
            <mxPoint x="892" y="315.5" as="sourcePoint" />
            <mxPoint x="982" y="315.5" as="targetPoint" />
            <Array as="points">
              <mxPoint x="922" y="316" />
            </Array>
          </mxGeometry>
        </mxCell>
        <mxCell id="YRFdh3WtyHf0gqD4VgI7-35" value="No" style="edgeLabel;resizable=0;html=1;;align=center;verticalAlign=middle;" parent="YRFdh3WtyHf0gqD4VgI7-34" connectable="0" vertex="1">
          <mxGeometry relative="1" as="geometry">
            <mxPoint x="-20" as="offset" />
          </mxGeometry>
        </mxCell>
        <mxCell id="YRFdh3WtyHf0gqD4VgI7-36" value="Is Lock&amp;nbsp;&lt;div&gt;period&amp;nbsp;&lt;/div&gt;&lt;div&gt;over?&lt;/div&gt;" style="rhombus;whiteSpace=wrap;html=1;fillColor=#f8cecc;strokeColor=#b85450;" parent="1" vertex="1">
          <mxGeometry x="881" y="400" width="80" height="80" as="geometry" />
        </mxCell>
        <mxCell id="YRFdh3WtyHf0gqD4VgI7-37" value="Proceed" style="rounded=1;whiteSpace=wrap;html=1;fillColor=#fff2cc;strokeColor=#d6b656;" parent="1" vertex="1">
          <mxGeometry x="981" y="357" width="120" height="40" as="geometry" />
        </mxCell>
        <mxCell id="YRFdh3WtyHf0gqD4VgI7-38" value="Warning Cannot remove out of vault" style="rounded=1;whiteSpace=wrap;html=1;fillColor=#fff2cc;strokeColor=#d6b656;" parent="1" vertex="1">
          <mxGeometry x="981" y="480" width="120" height="40" as="geometry" />
        </mxCell>
        <mxCell id="YRFdh3WtyHf0gqD4VgI7-39" value="" style="endArrow=classic;html=1;rounded=0;exitX=0.5;exitY=0;exitDx=0;exitDy=0;entryX=0;entryY=0.5;entryDx=0;entryDy=0;" parent="1" source="YRFdh3WtyHf0gqD4VgI7-36" target="YRFdh3WtyHf0gqD4VgI7-37" edge="1">
          <mxGeometry relative="1" as="geometry">
            <mxPoint x="871" y="306" as="sourcePoint" />
            <mxPoint x="961" y="306" as="targetPoint" />
            <Array as="points">
              <mxPoint x="921" y="376" />
            </Array>
          </mxGeometry>
        </mxCell>
        <mxCell id="YRFdh3WtyHf0gqD4VgI7-40" value="Yes" style="edgeLabel;resizable=0;html=1;;align=center;verticalAlign=middle;" parent="YRFdh3WtyHf0gqD4VgI7-39" connectable="0" vertex="1">
          <mxGeometry relative="1" as="geometry">
            <mxPoint x="-18" y="1" as="offset" />
          </mxGeometry>
        </mxCell>
        <mxCell id="YRFdh3WtyHf0gqD4VgI7-41" value="" style="endArrow=classic;html=1;rounded=0;exitX=0.5;exitY=1;exitDx=0;exitDy=0;entryX=0;entryY=0.5;entryDx=0;entryDy=0;" parent="1" source="YRFdh3WtyHf0gqD4VgI7-36" edge="1">
          <mxGeometry relative="1" as="geometry">
            <mxPoint x="891" y="499.5" as="sourcePoint" />
            <mxPoint x="981" y="499.5" as="targetPoint" />
            <Array as="points">
              <mxPoint x="921" y="500" />
            </Array>
          </mxGeometry>
        </mxCell>
        <mxCell id="YRFdh3WtyHf0gqD4VgI7-42" value="No" style="edgeLabel;resizable=0;html=1;;align=center;verticalAlign=middle;" parent="YRFdh3WtyHf0gqD4VgI7-41" connectable="0" vertex="1">
          <mxGeometry relative="1" as="geometry">
            <mxPoint x="-20" as="offset" />
          </mxGeometry>
        </mxCell>
        <mxCell id="YRFdh3WtyHf0gqD4VgI7-43" value="" style="endArrow=classic;html=1;rounded=0;exitX=1;exitY=0.5;exitDx=0;exitDy=0;entryX=0;entryY=0.5;entryDx=0;entryDy=0;edgeStyle=orthogonalEdgeStyle;curved=1;" parent="1" source="YRFdh3WtyHf0gqD4VgI7-17" target="YRFdh3WtyHf0gqD4VgI7-36" edge="1">
          <mxGeometry relative="1" as="geometry">
            <mxPoint x="832" y="392" as="sourcePoint" />
            <mxPoint x="893" y="392" as="targetPoint" />
          </mxGeometry>
        </mxCell>
        <mxCell id="YRFdh3WtyHf0gqD4VgI7-52" value="&lt;b&gt;&lt;font style=&quot;font-size: 18px;&quot; face=&quot;Verdana&quot;&gt;FVKRY PRVNTA : GENERAL&lt;/font&gt;&lt;/b&gt;" style="text;html=1;align=center;verticalAlign=middle;resizable=0;points=[];autosize=1;strokeColor=none;fillColor=none;" parent="1" vertex="1">
          <mxGeometry x="440" y="50" width="290" height="40" as="geometry" />
        </mxCell>
        <mxCell id="meGDIWs3k9gd9C3sqqIc-9" value="Is portion access available&lt;span style=&quot;background-color: transparent; color: light-dark(rgb(0, 0, 0), rgb(255, 255, 255));&quot;&gt;?&lt;/span&gt;" style="rhombus;whiteSpace=wrap;html=1;fillColor=#f8cecc;strokeColor=#b85450;" vertex="1" parent="1">
          <mxGeometry x="875" y="586" width="80" height="80" as="geometry" />
        </mxCell>
        <mxCell id="meGDIWs3k9gd9C3sqqIc-10" value="Proceed" style="rounded=1;whiteSpace=wrap;html=1;fillColor=#fff2cc;strokeColor=#d6b656;" vertex="1" parent="1">
          <mxGeometry x="975" y="543" width="120" height="40" as="geometry" />
        </mxCell>
        <mxCell id="meGDIWs3k9gd9C3sqqIc-11" value="Warning Cannot remove out of vault" style="rounded=1;whiteSpace=wrap;html=1;fillColor=#fff2cc;strokeColor=#d6b656;" vertex="1" parent="1">
          <mxGeometry x="975" y="666" width="120" height="40" as="geometry" />
        </mxCell>
        <mxCell id="meGDIWs3k9gd9C3sqqIc-12" value="" style="endArrow=classic;html=1;rounded=0;exitX=0.5;exitY=0;exitDx=0;exitDy=0;entryX=0;entryY=0.5;entryDx=0;entryDy=0;" edge="1" parent="1" source="meGDIWs3k9gd9C3sqqIc-9" target="meGDIWs3k9gd9C3sqqIc-10">
          <mxGeometry relative="1" as="geometry">
            <mxPoint x="865" y="492" as="sourcePoint" />
            <mxPoint x="955" y="492" as="targetPoint" />
            <Array as="points">
              <mxPoint x="915" y="562" />
            </Array>
          </mxGeometry>
        </mxCell>
        <mxCell id="meGDIWs3k9gd9C3sqqIc-13" value="Yes" style="edgeLabel;resizable=0;html=1;;align=center;verticalAlign=middle;" connectable="0" vertex="1" parent="meGDIWs3k9gd9C3sqqIc-12">
          <mxGeometry relative="1" as="geometry">
            <mxPoint x="-18" y="1" as="offset" />
          </mxGeometry>
        </mxCell>
        <mxCell id="meGDIWs3k9gd9C3sqqIc-14" value="" style="endArrow=classic;html=1;rounded=0;exitX=0.5;exitY=1;exitDx=0;exitDy=0;entryX=0;entryY=0.5;entryDx=0;entryDy=0;" edge="1" parent="1" source="meGDIWs3k9gd9C3sqqIc-9">
          <mxGeometry relative="1" as="geometry">
            <mxPoint x="885" y="685.5" as="sourcePoint" />
            <mxPoint x="975" y="685.5" as="targetPoint" />
            <Array as="points">
              <mxPoint x="915" y="686" />
            </Array>
          </mxGeometry>
        </mxCell>
        <mxCell id="meGDIWs3k9gd9C3sqqIc-15" value="No" style="edgeLabel;resizable=0;html=1;;align=center;verticalAlign=middle;" connectable="0" vertex="1" parent="meGDIWs3k9gd9C3sqqIc-14">
          <mxGeometry relative="1" as="geometry">
            <mxPoint x="-20" as="offset" />
          </mxGeometry>
        </mxCell>
        <mxCell id="meGDIWs3k9gd9C3sqqIc-23" value="" style="endArrow=classic;html=1;rounded=0;exitX=1;exitY=0.5;exitDx=0;exitDy=0;entryX=0;entryY=0.5;entryDx=0;entryDy=0;edgeStyle=orthogonalEdgeStyle;curved=1;" edge="1" parent="1" source="YRFdh3WtyHf0gqD4VgI7-17" target="meGDIWs3k9gd9C3sqqIc-9">
          <mxGeometry relative="1" as="geometry">
            <mxPoint x="770" y="520" as="sourcePoint" />
            <mxPoint x="829" y="566" as="targetPoint" />
          </mxGeometry>
        </mxCell>
      </root>
    </mxGraphModel>
  </diagram>
</mxfile>
